<svg xmlns="http://www.w3.org/2000/svg" xmlns:xlink="http://www.w3.org/1999/xlink" width="1122.52" height="793.701" viewBox="0 0 297 210" xmlns:v="https://vecta.io/nano"><style><![CDATA[.B{fill:#d4aa00}.C{fill:#ab37c8}.D{fill:#4d4d4d}.E{fill:#5aa02c}.F{fill:#ff7f2a}.G{fill:#2a7fff}]]></style><defs><filter id="A" x="-.008" width="1.015" y="-.053" height="1.105" color-interpolation-filters="sRGB"><feGaussianBlur stdDeviation=".082"/></filter><path id="B" d="M120.733 179.027h28.547v1.9h-28.547z"/></defs><path d="M0 0h297v210H0z" fill="#454545"/><g transform="translate(0 -87)"><path d="M85.447 220.806h9.906V235.2h-9.906z" fill="#616161"/><path d="M74.72 235.1c-.144 0-.17.13-.26.226l-1.016 1.08c-.09.097.116.226.26.226h33.392c.144 0 .352-.13.26-.226l-1.016-1.08c-.09-.097-.116-.226-.26-.226H88.467z" class="D"/><path d="M42.33 168.156h96.137v52.7H42.33z" fill="#1a1a1a"/><path d="M43.535 168.703h93.73v48.433h-93.73z" fill="#333"/><path d="M43.535 175.098H61.86v42.038H43.535z" class="D"/><path d="M61.702 168.8h75.302v1.74H61.702z" fill="#646464"/><g transform="matrix(.692615 0 0 .692615 234.28663 94.287796)"><rect ry=".369" y="114.894" x="-245.959" height=".949" width="4.036" class="C"/><g class="B"><rect width="3.724" height=".949" x="-239.77" y="114.894" ry=".369"/><rect ry=".369" y="114.894" x="-233.525" height=".949" width="13.56"/><rect width="4.036" height=".949" x="-217.034" y="114.894" ry=".369"/></g></g><g transform="matrix(.692615 0 0 .692615 234.28663 94.309528)"><rect ry=".369" y="117.936" x="-245.959" height=".949" width="4.036" class="C"/><g class="B"><rect width="3.724" height=".949" x="-239.77" y="117.936" ry=".369"/><rect width="6.019" height=".949" x="-233.525" y="117.936" ry=".369"/><rect ry=".369" y="117.936" x="-214.918" height=".949" width="8.269"/><rect ry=".369" y="117.936" x="-225.455" height=".949" width="7.21"/></g></g><g transform="matrix(.692615 0 0 .692615 234.28663 94.148007)"><rect ry=".369" y="121.244" x="-245.959" height=".949" width="4.036" class="C"/><rect width="5.84" height=".949" x="-239.77" y="121.244" ry=".369" class="B"/></g><g transform="matrix(.692615 0 0 .692615 234.28663 94.169739)" class="B"><rect ry=".369" y="124.286" x="-240.667" height=".949" width="4.036"/><rect width="3.724" height=".949" x="-234.478" y="124.286" ry=".369"/><rect ry=".369" y="124.286" x="-228.233" height=".949" width="6.019"/></g><g transform="matrix(.692615 0 0 .692615 234.28663 94.099847)" class="B"><rect width="4.036" height=".949" x="-240.667" y="127.461" ry=".369"/><rect ry=".369" y="127.461" x="-232.825" height=".949" width="4.914"/><rect width="5.291" height=".949" x="-225.852" y="127.461" ry=".369"/><rect ry=".369" y="127.461" x="-218.576" height=".949" width="19.05"/></g><g transform="matrix(.692615 0 0 .692615 234.28663 93.89656)" class="B"><rect ry=".369" y="130.829" x="-236.832" height=".949" width="4.036"/><rect width="4.914" height=".949" x="-230.299" y="130.829" ry=".369"/><rect ry=".369" y="130.829" x="-224.219" height=".949" width="2.95"/></g><g transform="matrix(.692615 0 0 .692615 234.28663 94.017223)" class="B"><rect width="4.036" height=".949" x="-236.832" y="133.729" ry=".369"/><rect ry=".369" y="133.729" x="-230.299" height=".949" width="4.914"/></g><g transform="matrix(.692615 0 0 .692615 234.28663 94.332251)" class="B"><rect ry=".369" y="136.348" x="-236.832" height=".949" width="4.036"/><rect width="15.298" height=".949" x="-230.299" y="136.348" ry=".369"/></g><g transform="matrix(.692615 0 0 .692615 234.28663 94.370026)"><rect width="4.036" height=".949" x="-245.959" y="139.368" ry=".369" class="C"/><rect ry=".369" y="139.368" x="-239.77" height=".949" width="5.84" class="B"/></g><g transform="matrix(-.692615 0 0 .692615 234.28663 94.375715)" class="E"><rect width="4.036" height=".949" x="224.129" y="142.433" ry=".369"/><rect ry=".369" y="142.433" x="230.662" height=".949" width="15.298"/></g><g transform="matrix(-.692615 0 0 .692615 234.28663 94.580704)" class="E"><rect ry=".369" y="145.212" x="222.013" height=".949" width="4.036"/><rect width="8.419" height=".949" x="237.541" y="145.212" ry=".369"/><rect ry=".369" y="145.212" x="227.487" height=".949" width="8.419"/></g><g transform="matrix(.692615 0 0 .692615 234.28663 94.435221)"><rect width="4.036" height=".949" x="-245.959" y="148.496" ry=".369" class="C"/><rect ry=".369" y="148.496" x="-239.77" height=".949" width="5.84" class="B"/></g><g transform="matrix(.692615 0 0 .692615 234.28663 94.415196)" class="B"><rect width="4.036" height=".949" x="-239.213" y="151.599" ry=".369"/><rect ry=".369" y="151.599" x="-232.68" height=".949" width="4.914"/><rect width="2.95" height=".949" x="-226.6" y="151.599" ry=".369"/></g><rect width="2.795" height=".658" x="63.932" y="201.544" ry=".256" class="C"/><g fill="#ccc"><rect width="11.849" height=".555" x="44.794" y="177.863" ry=".216"/><rect ry=".216" y="180.087" x="44.794" height=".555" width="11.849"/><rect width="11.849" height=".555" x="44.794" y="182.31" ry=".216"/><rect ry=".216" y="184.534" x="44.794" height=".555" width="11.849"/><rect width="11.849" height=".555" x="44.794" y="186.758" ry=".216"/><rect ry=".216" y="188.981" x="44.794" height=".555" width="11.849"/><rect width="11.849" height=".555" x="44.794" y="191.205" ry=".216"/><rect ry=".216" y="193.429" x="44.794" height=".555" width="11.849"/><rect width="11.849" height=".555" x="44.794" y="195.652" ry=".216"/><rect ry=".216" y="197.876" x="44.794" height=".555" width="11.849"/><rect width="11.849" height=".555" x="44.794" y="200.1" ry=".216"/><rect ry=".216" y="202.323" x="44.794" height=".555" width="11.849"/><rect width="11.849" height=".555" x="44.794" y="204.547" ry=".216"/><rect ry=".216" y="206.771" x="44.794" height=".555" width="11.849"/><rect width="11.849" height=".555" x="44.794" y="208.994" ry=".216"/><rect ry=".216" y="211.218" x="44.794" height=".555" width="11.849"/></g><g transform="matrix(.692615 0 0 .692615 234.28663 121.0864)"><rect width="4.036" height=".949" x="-245.959" y="121.244" ry=".369" class="C"/><rect ry=".369" y="121.244" x="-239.77" height=".949" width="5.84" class="B"/></g><g transform="matrix(.692615 0 0 .692615 234.28663 121.10814)" class="B"><rect width="4.036" height=".949" x="-240.667" y="124.286" ry=".369"/><rect ry=".369" y="124.286" x="-234.478" height=".949" width="3.724"/><rect width="6.019" height=".949" x="-228.233" y="124.286" ry=".369"/></g><g transform="matrix(.692615 0 0 .692615 234.28663 121.03825)" class="B"><rect ry=".369" y="127.461" x="-240.667" height=".949" width="4.036"/><rect width="4.914" height=".949" x="-232.825" y="127.461" ry=".369"/><rect ry=".369" y="127.461" x="-225.852" height=".949" width="5.291"/><rect width="19.05" height=".949" x="-218.576" y="127.461" ry=".369"/></g><g transform="matrix(.692615 0 0 .692615 234.28663 127.95844)"><rect ry=".369" y="121.244" x="-245.959" height=".949" width="4.036" class="C"/><rect width="5.84" height=".949" x="-239.77" y="121.244" ry=".369" class="B"/></g><g transform="matrix(-.692615 0 0 .692615 234.28663 114.18892)" class="E"><rect width="4.036" height=".949" x="222.013" y="145.212" ry=".369"/><rect ry=".369" y="145.212" x="237.541" height=".949" width="8.419"/><rect width="8.419" height=".949" x="227.487" y="145.212" ry=".369"/></g><path d="M85.447 220.806h9.906v2.082h-9.906z" opacity=".614" fill="#191919"/><path d="M60.702 174.938h1.157v42.198h-1.157zM43.535 168.8H61.86v6.307H43.535z" fill="#646464"/><rect width="11.417" height="1.136" x="44.928" y="171.226" ry=".442" fill="#ccc"/><rect ry=".45" y="-61.859" x="183.507" height="1.157" width="2.997" transform="rotate(90)" fill="#9a9a9a"/><path d="M248.148 220.727c-.558 0-1.007.61-1.007 1.37v9.616c0 .76.45 1.37 1.007 1.37h5.514c.558 0 1.007-.61 1.007-1.37v-9.616c0-.76-.45-1.37-1.007-1.37zm.618 2.15h3.832c.388 0 .7.46.7 1.034v6.105c0 .573-.312 1.034-.7 1.034h-3.832c-.388 0-.7-.46-.7-1.034v-6.105c0-.573.312-1.034.7-1.034z" fill="#dadada"/><path d="M234.027 217.17v18.455c0 .564.454 1.018 1.018 1.018h13.97c.564 0 1.018-.454 1.018-1.018V217.17z" fill="#f4f4f4"/><path d="M241.898 217.17v19.473h-6.854c-.564 0-1.018-.454-1.018-1.018V217.17z" fill="#ccc" fill-opacity=".533"/><path d="M241.996 197.003c.26.197-.402 1.558-1.618 3.478-.2.668-.326 1.498-.03 2.112.24.823 1.09 1.47 2.17 2.12l.417.234c1.273.774 2.253 1.95 2.654 3.377.328 1.458-.015 2.776-.476 3.722h0c-.553 1.166-1.286 2-1.826 2.513h0c-.32.3-.602.507-.82.628h0c-.116.065-.215.105-.293.12h0c-.073-.025-.118-.033-.144-.034s-.034.005-.035.005.006-.01.005-.035a.54.54 0 0 0-.04-.143h0a1.35 1.35 0 0 1 .083-.291h0c.087-.223.232-.518.414-.88h0c.296-.592.78-1.528 1.062-2.504h0c.217-.797.377-1.78.09-2.56-.207-.784-.907-1.463-1.835-2.065l-.303-.19c-1.406-.72-2.568-1.907-3.038-3.445-.305-1.397.057-2.645.537-3.513 1.626-1.83 2.762-2.85 3.024-2.65z" fill="#e0e0e0" fill-opacity=".662"/><rect ry="3.042" y="147.357" x="109.471" height="67.119" width="122.439" fill="#0f1938"/><path d="M162.698 214.447l-3.462 20.674h22.908l-3.462-20.674h-7.992z" fill="#d8d8d8"/><rect width="114.223" height="52.695" x="113.579" y="150.399" ry=".785" fill="#fff"/><path d="M113.562 201.23h114.24v1.864h-114.24z" fill="#6c5353"/><path d="M113.562 190.907h114.24v10.322h-114.24z" fill="#f9f9f9"/><path d="M113.58 189.165h114.223v1.864H113.58z" fill="#ccc"/><path d="M206.256 191.035h1.128v10.195h-1.128z" fill="#ececec"/><rect ry=".237" y="192.509" x="115.75" height=".61" width="2.592" class="C"/><rect width="2.391" height=".61" x="119.724" y="192.509" ry=".237" class="F"/><rect ry=".237" y="192.509" x="123.735" height=".61" width="8.708" class="G"/><rect width="2.592" height=".61" x="115.75" y="194.393" ry=".237" class="C"/><rect ry=".237" y="194.393" x="119.724" height=".61" width="2.391" class="F"/><rect width="2.469" height=".61" x="123.735" y="194.393" ry=".237" class="G"/><rect width="4.306" height=".61" x="127.906" y="194.393" ry=".237" class="F"/><rect ry=".237" y="194.393" x="134.145" height=".61" width="10.687" fill="#333"/><g class="C"><rect ry=".237" y="194.393" x="146.139" height=".61" width="2.592"/><rect width="2.592" height=".61" x="134.326" y="192.509" ry=".237"/><rect ry=".237" y="196.007" x="117.552" height=".61" width="4.121"/></g><g class="F"><rect width="6.385" height=".61" x="122.928" y="196.049" ry=".237"/><rect width="2.391" height=".61" x="130.278" y="196.049" ry=".237"/></g><g fill="#333"><rect width="2.828" height=".61" x="133.526" y="196.092" ry=".237"/><rect ry=".237" y="196.092" x="137.264" height=".61" width="4.527"/></g><rect ry=".237" y="196.134" x="142.742" height=".61" width="2.512" class="G"/><g class="C"><rect width="3.909" height=".61" x="146.242" y="196.219" ry=".237"/><rect ry=".237" y="198.046" x="115.75" height=".61" width="2.592"/></g><rect width="2.391" height=".61" x="119.724" y="198.046" ry=".237" class="F"/><rect ry=".237" y="198.046" x="123.828" height=".61" width="4.306" fill="#333"/><rect width="2.592" height=".61" x="129.896" y="198.046" ry=".237" class="C"/><rect transform="rotate(90)" width="2.997" height=".97" x="192.05" y="-207.305" ry=".377" fill="#ccc"/><g transform="scale(-1)"><rect ry=".245" y="-192.844" x="-210.698" height=".63" width="2.063" class="D"/><rect width="2.063" height=".63" x="-211.717" y="-194.119" ry=".245" fill="#f06"/><rect ry=".245" y="-194.119" x="-214.648" height=".63" width="2.063" class="D"/><rect ry=".245" y="-195.648" x="-212.779" height=".63" width="3.125" fill="#f06"/><rect width="2.063" height=".63" x="-216.305" y="-195.648" ry=".245" class="D"/><rect ry=".245" y="-196.922" x="-212.142" height=".63" width="2.488" fill="#f06"/><g class="D"><rect width="1.426" height=".63" x="-214.351" y="-196.965" ry=".245"/><rect width="2.063" height=".63" x="-210.698" y="-199.344" ry=".245"/></g><rect width="1.893" height=".63" x="-211.547" y="-200.533" ry=".245" fill="#f06"/><rect ry=".245" y="-200.576" x="-214.351" height=".63" width="2.02" class="D"/></g><path d="M146.1 234.96c-.226 0-.266.14-.408.248l-1.593 1.187c-.143.106.182.248.408.248h52.366c.226 0 .55-.14.408-.248l-1.593-1.187c-.143-.106-.182-.248-.408-.248H167.66z" fill="#70737e"/><g transform="matrix(-.760375 0 0 .760375 362.30205 82.304452)" class="E"><rect width="4.036" height=".949" x="222.013" y="145.212" ry=".369"/><rect ry=".369" y="145.212" x="237.541" height=".949" width="8.419"/><rect width="8.419" height=".949" x="227.487" y="145.212" ry=".369"/></g><g transform="scale(-1 1)" class="E"><rect ry=".281" y="194.522" x="-181.682" height=".722" width="6.401"/><rect width="16.734" height=".722" x="-199.66" y="194.522" ry=".281"/><rect width="14.091" height=".722" x="-189.371" y="196.204" ry=".281"/></g><path transform="matrix(.642226 0 0 .642226 219.85621 92.553659)" d="M-89 189.798l-.63 3.755h26.147l-.63-3.755z" opacity=".614" fill="#6d6f7a" filter="url(#A)"/><path d="M109.47 205v6.435c0 1.685 1.357 3.042 3.042 3.042h116.355c1.685 0 3.042-1.357 3.042-3.042V205z" fill="#ececec"/><circle r="2.549" cy="209.738" cx="170.69" fill="#0b1229" fill-opacity=".63"/><g fill="#efd9ce"><path d="M120.733 172.25h28.547v4.378h-28.547z"/><use xlink:href="#B"/><use xlink:href="#B" y="3.473"/><use xlink:href="#B" y="6.966"/><path d="M156.405 172.25h28.547v4.378h-28.547z"/><use xlink:href="#B" x="35.672"/><use xlink:href="#B" x="35.672" y="3.473"/><use xlink:href="#B" x="35.672" y="6.966"/><path d="M192.076 172.25h28.547v4.378h-28.547z"/><use xlink:href="#B" x="71.343"/><use xlink:href="#B" x="71.343" y="3.473"/><use xlink:href="#B" x="71.343" y="6.966"/></g><path d="M120.47 155.382h28.97v13.764h-28.97zm35.734 0h28.97v13.764h-28.97zm35.734 0h28.97v13.764h-28.97z" fill-opacity=".724" fill="#ffa69e"/></g></svg>